<?xml version="1.0" encoding="utf-8"?>
<!-- Generator: Adobe Illustrator 27.5.0, SVG Export Plug-In . SVG Version: 6.00 Build 0)  -->
<svg version="1.1" xmlns="http://www.w3.org/2000/svg" xmlns:xlink="http://www.w3.org/1999/xlink" x="0px" y="0px"
	 viewBox="0 0 1920 1080" style="enable-background:new 0 0 1920 1080;" xml:space="preserve">
<style type="text/css">
	.st0{display:none;}
	.st1{display:inline;fill:#8BA226;}
	.st2{display:inline;fill:#FFFFFF;}
	.st3{fill:#FFFFFF;}
	.st4{fill:#8BA226;}
	.st5{fill:#FFCB00;}
</style>
<g id="BG" class="st0">
	<rect y="0" class="st1" width="1920" height="1080"/>
</g>
<g id="LOGO">
	<g>
		<g>
			<g>
				<path class="st3" d="M402.9,699.5h44c0,19.6,16.1,29,34,29c16.4,0,32.5-8.7,32.5-23.8c0-15.7-18.4-20-40.3-25.1
					c-30.4-7.5-67.4-16.4-67.4-60c0-38.8,28.5-60.7,73.2-60.7c46.4,0,72.7,24.8,72.7,65.2h-43.1c0-17.4-14.3-25.6-30.7-25.6
					c-14.1,0-28.5,6-28.5,19.3c0,14.2,17.5,18.6,38.9,23.7c30.8,7.8,69.4,17.4,69.4,62.8c0,43.7-34.7,64.9-76.5,64.9
					C434.8,769.1,402.9,743,402.9,699.5z"/>
			</g>
		</g>
		<g>
			<g>
				<path class="st3" d="M575.7,701.7V613h42.1v84c0,21.8,11.7,34.9,31.2,34.9c19.5,0,30.9-13.3,30.9-34.9v-84H722v88.7
					c0,41.5-29,69.2-73,69.2C605,770.9,575.7,743.2,575.7,701.7z"/>
			</g>
		</g>
		<g>
			<g>
				<path class="st3" d="M890,676.7v93h-42.1v-86.3c0-23.2-8.9-34.4-27.1-34.4c-21.7,0-34.9,15.3-34.9,40v80.7h-42.1V616.2h28.9
					l8.2,19c11.8-13.8,30.4-22.6,51.6-22.6C867.8,612.5,890,637.8,890,676.7z"/>
			</g>
		</g>
		<g>
			<g>
				<path class="st3" d="M1077.5,560.8v208.9h-31.1l-5-12.8c-13.1,11-29.9,17.4-48.7,17.4c-47.2,0-81.8-34.9-81.8-81.3
					c0-46.5,34.6-81.1,81.8-81.1c16.1,0,30.7,4.6,42.7,12.7v-63.7L1077.5,560.8z M1038.6,692.9c0-24.1-18-42.1-42.4-42.1
					s-42.4,18-42.4,42.1c0,24.1,17.9,42.1,42.4,42.1S1038.6,717,1038.6,692.9z"/>
			</g>
		</g>
		<g>
			<g>
				<path class="st3" d="M1257.9,689.3c0,4.1-0.3,8.1-0.8,12.2h-117.8c3.7,21,17.6,32.5,38,32.5c14.6,0,26.6-6.8,33-17.8h44.2
					c-11.3,33.5-41.1,54.8-77.2,54.8c-46,0-80.7-35.1-80.7-81.1c0-46.2,34.5-81.1,80.7-81.1C1225.2,608.7,1257.9,645,1257.9,689.3
					L1257.9,689.3z M1140.4,673.1h75.4c-5.9-18.8-19.6-28.9-38.5-28.9C1158.6,644.1,1145.3,654.9,1140.4,673.1z"/>
			</g>
		</g>
		<g>
			<g>
				<path class="st3" d="M1447.1,615.9v153.5h-33l-3.6-13.7c-13.4,11.5-30.8,18.3-50.4,18.3c-46.8,0-81.6-34.9-81.6-81.3
					c0-46.3,34.8-80.9,81.6-80.9c20,0,37.7,6.9,51.1,18.8l4.5-14.7L1447.1,615.9z M1405.8,692.7c0-24.1-17.9-42.1-42.4-42.1
					c-24.4,0-42.4,18-42.4,42.1c0,24.1,18,42.1,42.4,42.1C1387.9,734.8,1405.8,716.8,1405.8,692.7z"/>
			</g>
		</g>
		<g>
			<g>
				<path class="st3" d="M1468.3,560.8h42.1v208.9h-42.1V560.8z"/>
			</g>
		</g>
		<g>
			<path class="st3" d="M473.7,841.2l-4.9-32.2l-14.9,32.1h-2.7L436.3,809l-4.9,32.2h-11l7.8-49.3H439l13.5,30.2l13.6-30.2H477
				l7.8,49.3H473.7z"/>
			<path class="st3" d="M525.4,831.3v9.9h-30.8v-49.3h30v9.9h-19.2v9.7h17.4v9.7h-17.4v10.1H525.4z"/>
			<path class="st3" d="M553.7,824.4h-6.9v16.8h-10.8v-49.3h20.2c10,0,17.5,6.8,17.5,16.3c0,6.5-3.6,11.7-9.1,14.4l11.1,18.7h-12.1
				L553.7,824.4z M546.7,814.5h8.7c4.5,0,7.2-2.7,7.2-6.4c0-3.7-2.7-6.4-7.2-6.4h-8.7V814.5z"/>
			<path class="st3" d="M607.1,842.3c-14.7,0-25.8-11.1-25.8-25.7c0-14.7,11.1-25.8,25.8-25.8c12.2,0,21.9,7.9,24.2,19.7h-10.8
				c-2-5.8-7-9.5-13.4-9.5c-8.5,0-14.9,6.7-14.9,15.6s6.4,15.5,14.9,15.5c6.6,0,11.7-3.9,13.5-10.2h10.9
				C629.2,834.1,619.5,842.3,607.1,842.3L607.1,842.3z"/>
			<path class="st3" d="M668.7,831.9h-19.9l-3.4,9.4h-11.5l19.6-49.3h10.2l20.2,49.3h-11.7L668.7,831.9z M652.2,822.6h13.1
				l-6.6-17.6L652.2,822.6z"/>
			<path class="st3" d="M736,816.5c0,14.3-10.7,24.7-25.4,24.7h-18.9v-49.3h18.9C725.4,791.9,736,802.2,736,816.5z M725,816.5
				c0-8.7-6-14.7-14.6-14.7h-7.8v29.5h7.8C719,831.3,725,825.1,725,816.5z"/>
			<path class="st3" d="M743.2,816.5c0-14.6,11.4-25.7,26.7-25.7c15.2,0,26.6,11,26.6,25.7c0,14.7-11.4,25.7-26.6,25.7
				C754.6,842.3,743.2,831.2,743.2,816.5z M785.5,816.5c0-9-6.7-15.7-15.6-15.7c-8.9,0-15.7,6.8-15.7,15.7s6.8,15.7,15.7,15.7
				C778.8,832.2,785.5,825.5,785.5,816.5z"/>
			<path class="st3" d="M869.2,816.5c0,14.3-10.7,24.7-25.4,24.7h-18.9v-49.3h18.9C858.5,791.9,869.2,802.2,869.2,816.5z
				 M858.1,816.5c0-8.7-6-14.7-14.6-14.7h-7.8v29.5h7.8C852.1,831.3,858.1,825.1,858.1,816.5z"/>
			<path class="st3" d="M910.1,831.3v9.9h-30.8v-49.3h30v9.9h-19.2v9.7h17.4v9.7h-17.4v10.1H910.1z"/>
			<path class="st3" d="M969.9,831.3v9.9h-30.8v-49.3h30v9.9h-19.2v9.7h17.4v9.7h-17.4v10.1H969.9z"/>
			<path class="st3" d="M1022.8,791.9v49.3h-9l-22.7-30.8v30.8h-10.6v-49.3h9.8l21.9,30.1v-30.1H1022.8z"/>
			<path class="st3" d="M1066.5,831.3v9.9h-30.8v-49.3h30v9.9h-19.2v9.7h17.4v9.7h-17.4v10.1H1066.5z"/>
			<path class="st3" d="M1094.8,824.4h-6.9v16.8H1077v-49.3h20.2c10,0,17.5,6.8,17.5,16.3c0,6.5-3.6,11.7-9.1,14.4l11.1,18.7h-12.1
				L1094.8,824.4z M1087.8,814.5h8.7c4.5,0,7.2-2.7,7.2-6.4c0-3.7-2.7-6.4-7.2-6.4h-8.7V814.5z"/>
			<path class="st3" d="M1173.8,815.4c-0.1,15.5-10.5,26.8-25.5,26.8c-14.7,0-25.9-10.9-25.9-25.7c0-14.8,10.9-25.8,25.7-25.8
				c12.4,0,22.7,7.8,25.1,18.8H1162c-2.1-5.3-7.4-8.6-13.7-8.6c-8.9,0-14.9,6.4-14.9,15.6c0,9.1,5.9,15.5,14.9,15.5
				c6.5,0,12.1-3.4,13.9-8.5h-15v-8.2H1173.8z"/>
			<path class="st3" d="M1183.6,791.9h10.8v49.3h-10.8V791.9z"/>
			<path class="st3" d="M1237,831.9h-19.9l-3.4,9.4h-11.5l19.6-49.3h10.2l20.2,49.3h-11.7L1237,831.9z M1220.5,822.6h13.1l-6.6-17.6
				L1220.5,822.6z"/>
			<path class="st3" d="M1273.8,825.2h10.9c0,4.8,4,7.1,8.4,7.1c4.1,0,8.1-2.1,8.1-5.8c0-3.8-4.6-4.9-10-6.1
				c-7.5-1.8-16.7-4-16.7-14.6c0-9.5,7.1-14.8,18.1-14.8c11.5,0,18,6.1,18,15.9h-10.7c0-4.2-3.6-6.2-7.6-6.2c-3.5,0-7.1,1.5-7.1,4.7
				c0,3.5,4.3,4.5,9.6,5.8c7.6,1.9,17.2,4.2,17.2,15.3c0,10.7-8.6,15.8-19,15.8C1281.7,842.2,1273.8,835.8,1273.8,825.2z"/>
			<path class="st3" d="M1319.3,816.5c0-14.6,11.4-25.7,26.7-25.7c15.2,0,26.6,11,26.6,25.7c0,14.7-11.4,25.7-26.6,25.7
				C1330.7,842.3,1319.3,831.2,1319.3,816.5z M1361.6,816.5c0-9-6.7-15.7-15.6-15.7c-8.9,0-15.7,6.8-15.7,15.7s6.8,15.7,15.7,15.7
				C1354.9,832.2,1361.6,825.5,1361.6,816.5z"/>
			<path class="st3" d="M1412.5,831.3v9.9h-30v-49.3h10.8v39.4H1412.5z"/>
			<path class="st3" d="M1450.9,831.9H1431l-3.4,9.4h-11.5l19.6-49.3h10.2l20.2,49.3h-11.7L1450.9,831.9z M1434.4,822.6h13.1
				l-6.6-17.6L1434.4,822.6z"/>
			<path class="st3" d="M1491.7,824.4h-6.9v16.8h-10.8v-49.3h20.2c10,0,17.5,6.8,17.5,16.3c0,6.5-3.6,11.7-9.1,14.4l11.1,18.7h-12.1
				L1491.7,824.4z M1484.7,814.5h8.7c4.5,0,7.2-2.7,7.2-6.4c0-3.7-2.7-6.4-7.2-6.4h-8.7V814.5z"/>
		</g>
		<g>
			<path class="st3" d="M1381.9,365.2c-32.9-21.7-71.1-33.2-110.6-33.2c-35.3,0-64,8.8-84.7,18.3c13.1-34.2,46.4-58.4,84.7-58.4
				c23.6,0,45.9,9,62.9,25.4c7,6.8,18.2,6.6,25-0.4c6.8-7,6.6-18.2-0.4-25c-19.3-18.6-43.6-30.4-69.8-34.1v-43.9
				c0-9.7-7.9-17.7-17.7-17.7c-9.7,0-17.7,7.9-17.7,17.7l0,43.9c-25.5,3.6-49.3,14.9-68.4,32.8c-23.3,21.8-37.3,51.3-39.5,83.1
				c-0.6,8.7,3.7,16.8,11.2,21.1c7.4,4.3,16.5,4,23.6-0.8c11.9-8,44.6-26.7,90.8-26.7c31.7,0,62.5,9,89.1,26
				c-1.9,9.2-6.1,24.1-15.2,38.2c-21.3-15.9-47.1-24.5-73.9-24.5c-33.6,0-65.1,13.3-88.7,37.4c-6.7,6.9-6.7,17.8,0,24.7
				c19.4,19.9,44.1,32.4,71,36.2v40.4c0,9.7,7.9,17.7,17.7,17.7s17.7-7.9,17.7-17.7v-40.8c32.5-4.7,59.5-19.7,78.6-44
				c18.4-23.3,25.4-49.6,27.9-63.2C1397.9,385,1392.6,372.3,1381.9,365.2z M1271.3,442.4c17.5,0,34.4,5.2,48.8,14.7
				c-13.6,8.7-30.1,13.5-49.4,14.1c-0.1,0-0.2,0-0.4,0c-17.1-0.2-33.5-5.2-47.5-14.4C1237.1,447.5,1253.8,442.4,1271.3,442.4z"/>
			<g>
				<g>
					<path class="st5" d="M1109.7,400.3h-38.5c-9.7,0-17.7-7.9-17.7-17.7s7.9-17.7,17.7-17.7h38.5c9.7,0,17.7,7.9,17.7,17.7
						S1119.5,400.3,1109.7,400.3z"/>
				</g>
				<g>
					<path class="st5" d="M1471.4,400.3h-38.5c-9.7,0-17.7-7.9-17.7-17.7s7.9-17.7,17.7-17.7h38.5c9.7,0,17.7,7.9,17.7,17.7
						S1481.2,400.3,1471.4,400.3z"/>
				</g>
			</g>
			<g>
				<g>
					<path class="st5" d="M1129.8,541.8c-4.5,0-9-1.7-12.5-5.2c-6.9-6.9-6.9-18.1,0-25l27.2-27.2c6.9-6.9,18.1-6.9,25,0
						c6.9,6.9,6.9,18.1,0,25l-27.2,27.2C1138.9,540.1,1134.4,541.8,1129.8,541.8z"/>
				</g>
				<g>
					<path class="st5" d="M1385.6,286c-4.5,0-9-1.7-12.5-5.2c-6.9-6.9-6.9-18.1,0-25l27.2-27.2c6.9-6.9,18.1-6.9,25,0
						c6.9,6.9,6.9,18.1,0,25l-27.2,27.2C1394.6,284.3,1390.1,286,1385.6,286z"/>
				</g>
			</g>
			<g>
				<g>
					<path class="st5" d="M1157.1,286c-4.5,0-9-1.7-12.5-5.2l-27.2-27.2c-6.9-6.9-6.9-18.1,0-25c6.9-6.9,18.1-6.9,25,0l27.2,27.2
						c6.9,6.9,6.9,18.1,0,25C1166.1,284.3,1161.6,286,1157.1,286z"/>
				</g>
				<g>
					<path class="st5" d="M1412.8,541.8c-4.5,0-9-1.7-12.5-5.2l-27.2-27.2c-6.9-6.9-6.9-18.1,0-25c6.9-6.9,18.1-6.9,25,0l27.2,27.2
						c6.9,6.9,6.9,18.1,0,25C1421.9,540.1,1417.3,541.8,1412.8,541.8z"/>
				</g>
			</g>
		</g>
	</g>
</g>
</svg>
