<?xml version="1.0" encoding="UTF-8"?>
<svg id="GRID" xmlns="http://www.w3.org/2000/svg" viewBox="0 0 1920 1080">
  <defs>
    <style>
      .cls-1 {
        fill: #ffcb04;
      }

      .cls-2 {
        fill: #8ba221;
      }
    </style>
  </defs>
  <path class="cls-2" d="m1153.78,514.24c-57.6-38.01-124.61-58.1-193.78-58.1-61.9,0-112.18,15.43-148.43,32.09,8.5-22.35,22.05-42.67,39.92-59.41,29.51-27.65,68.05-42.87,108.51-42.87s80.49,15.81,110.23,44.51c12.29,11.86,31.87,11.52,43.74-.78,11.86-12.29,11.52-31.87-.78-43.73-33.83-32.65-76.41-53.28-122.26-59.7v-76.92c0-17.08-13.85-30.93-30.93-30.93s-30.93,13.85-30.93,30.93v76.92c-44.72,6.28-86.46,26.12-119.87,57.43-40.82,38.24-65.42,89.94-69.28,145.57-1.05,15.22,6.48,29.41,19.67,37.02,13.02,7.51,28.85,6.95,41.31-1.45,20.86-14.08,78.13-46.82,159.09-46.82,55.59,0,109.46,15.73,156.1,45.52-3.33,16.16-10.73,42.16-26.6,67.03-37.33-27.8-82.55-42.91-129.5-42.91-58.94,0-114.14,23.29-155.42,65.57-11.73,12.02-11.73,31.2,0,43.21,33.97,34.79,77.35,56.7,124.49,63.38v70.85c0,17.08,13.85,30.93,30.93,30.93,17.08,0,30.93-13.85,30.93-30.93v-71.42c26.26-3.77,50.41-11.32,72.08-22.59,25.45-13.24,47.55-31.61,65.69-54.58,32.17-40.75,44.45-86.91,48.92-110.8,4.17-22.33-5.19-44.71-23.83-57.02Zm-193.78,135.27c30.66,0,60.3,9.02,85.55,25.74-23.85,15.31-52.82,23.64-86.62,24.81-.3.01-.59.03-.88.05-29.97-.37-58.53-9.15-83.05-25.28,25.05-16.48,54.32-25.32,85-25.32Z"/>
  <g>
    <path class="cls-1" d="m676.84,575.64h-67.48c-17.08,0-30.93-13.85-30.93-30.93s13.85-30.93,30.93-30.93h67.48c17.08,0,30.93,13.85,30.93,30.93s-13.85,30.93-30.93,30.93Z"/>
    <path class="cls-1" d="m1310.64,575.64h-67.48c-17.08,0-30.93-13.85-30.93-30.93s13.85-30.93,30.93-30.93h67.48c17.08,0,30.93,13.85,30.93,30.93s-13.85,30.93-30.93,30.93Z"/>
  </g>
  <g>
    <path class="cls-1" d="m712.06,823.58c-7.92,0-15.83-3.02-21.87-9.06-12.08-12.08-12.08-31.66,0-43.74l47.71-47.71c12.08-12.08,31.66-12.08,43.74,0,12.08,12.08,12.08,31.66,0,43.74l-47.71,47.71c-6.04,6.04-13.96,9.06-21.87,9.06Z"/>
    <path class="cls-1" d="m1160.23,375.41c-7.92,0-15.83-3.02-21.87-9.06-12.08-12.08-12.08-31.66,0-43.74l47.72-47.71c12.08-12.08,31.66-12.08,43.74,0,12.08,12.08,12.08,31.66,0,43.74l-47.72,47.71c-6.04,6.04-13.96,9.06-21.87,9.06Z"/>
  </g>
  <g>
    <path class="cls-1" d="m759.77,375.41c-7.92,0-15.83-3.02-21.87-9.06l-47.71-47.71c-12.08-12.08-12.08-31.66,0-43.74,12.08-12.08,31.66-12.08,43.74,0l47.71,47.71c12.08,12.08,12.08,31.66,0,43.74-6.04,6.04-13.96,9.06-21.87,9.06Z"/>
    <path class="cls-1" d="m1207.94,823.58c-7.92,0-15.83-3.02-21.87-9.06l-47.71-47.71c-12.08-12.08-12.08-31.66,0-43.74,12.08-12.08,31.66-12.08,43.74,0l47.71,47.71c12.08,12.08,12.08,31.66,0,43.74-6.04,6.04-13.96,9.06-21.87,9.06Z"/>
  </g>
</svg>